<?xml version="1.0" encoding="UTF-8"?>
<svg id="Layer_2" data-name="Layer 2" xmlns="http://www.w3.org/2000/svg" viewBox="0 0 160.35 65.75">
  <defs>
    <style>
      .cls-1 {
        fill: #fff;
      }
    </style>
  </defs>
  <g id="Layer_1-2" data-name="Layer 1">
    <g>
      <path class="cls-1" d="M119.91,0h-6.27c-9.96,0-18.03,8.07-18.03,18.03v6.97s-.39-.62-.39-.62c-7.07-11.28-23.5-11.28-30.56,0l-.39,.62V0s-6.27,0-6.27,0c-9.96,0-18.03,8.07-18.03,18.03v6.97S24.3,0,24.3,0h-6.27C8.07,0,0,8.07,0,18.03V63.05s6.27,0,6.27,0c9.96,0,18.03-8.07,18.03-18.03v-6.97s15.67,25.01,15.67,25.01h24.3s15.67-25.01,15.67-25.01l15.67,25.01h24.3s0-25.01,0-25.01h3.32c9.96,0,18.03-8.07,18.03-18.03V0s-21.35,0-21.35,0Z"/>
      <path class="cls-1" d="M160.34,49.64c-.02-1.43-.59-2.85-1.69-3.93-2.21-2.15-5.75-2.1-7.9,.11l-4.02,4.13-4.13-4.02c-1.11-1.07-2.54-1.6-3.97-1.58-1.43,.02-2.85,.59-3.93,1.69-2.15,2.21-2.1,5.75,.11,7.9l4.13,4.02h0l8.01,7.79,7.79-8.01h0s4.02-4.13,4.02-4.13c1.07-1.11,1.6-2.54,1.58-3.97Z"/>
    </g>
  </g>
</svg>